<svg xmlns="http://www.w3.org/2000/svg" width="64" height="64" fill="none"><g fill="#20B26C" clip-path="url(#a)"><path fill-rule="evenodd" d="M3 4.5A1.5 1.5 0 0 1 4.5 3h9.2a1.5 1.5 0 0 0 0-3H4.5A4.5 4.5 0 0 0 0 4.5v9.2a1.5 1.5 0 0 0 3 0V4.5zm0 54.998a1.5 1.5 0 0 0 1.5 1.5h9.2a1.5 1.5 0 0 1 0 3H4.5a4.5 4.5 0 0 1-4.5-4.5v-9.2a1.5 1.5 0 0 1 3 0v9.2zM59.498 3a1.5 1.5 0 0 1 1.5 1.5v9.2a1.5 1.5 0 0 0 3 0V4.5a4.5 4.5 0 0 0-4.5-4.5h-9.2a1.5 1.5 0 0 0 0 3h9.2zm1.5 56.498a1.5 1.5 0 0 1-1.5 1.5h-9.2a1.5 1.5 0 0 0 0 3h9.2a4.5 4.5 0 0 0 4.5-4.5v-9.2a1.5 1.5 0 0 0-3 0v9.2z" clip-rule="evenodd"/><path d="M24.267 46.54c-1.68 0-3.18-.378-4.5-1.134a8.608 8.608 0 0 1-3.113-3.114c-.756-1.32-1.134-2.82-1.134-4.5v-9.504c0-1.68.378-3.18 1.134-4.5a8.427 8.427 0 0 1 3.113-3.114c1.32-.756 2.82-1.134 4.5-1.134 1.68 0 3.18.378 4.5 1.134a8.255 8.255 0 0 1 3.114 3.114c.757 1.32 1.135 2.82 1.135 4.5v9.504c0 1.68-.378 3.18-1.134 4.5a8.427 8.427 0 0 1-3.115 3.114c-1.32.756-2.82 1.134-4.5 1.134zm0-3.078c1.02 0 1.945-.246 2.773-.738a5.59 5.59 0 0 0 1.98-1.98c.492-.84.738-1.764.738-2.772V28.09c0-1.02-.246-1.944-.738-2.772a5.59 5.59 0 0 0-1.98-1.98c-.828-.492-1.752-.738-2.773-.738a5.385 5.385 0 0 0-2.771.738 5.59 5.59 0 0 0-1.98 1.98c-.492.828-.738 1.752-.738 2.772v9.882c0 1.008.245 1.932.738 2.772a5.59 5.59 0 0 0 1.98 1.98c.84.492 1.764.738 2.771.738zM42.573 46V23.626l-4.878 2.952v-3.582l4.878-2.916h3.258V46h-3.258z"/></g><defs><clipPath id="a"><path fill="#fff" d="M0 0h64v64H0z"/></clipPath></defs></svg>