<svg xmlns="http://www.w3.org/2000/svg" width="64" height="64" fill="none"><g fill="#20B26C" clip-path="url(#a)"><path fill-rule="evenodd" d="M3 4.5A1.5 1.5 0 0 1 4.5 3h9.2a1.5 1.5 0 0 0 0-3H4.5A4.5 4.5 0 0 0 0 4.5v9.2a1.5 1.5 0 0 0 3 0V4.5zm0 54.998a1.5 1.5 0 0 0 1.5 1.5h9.2a1.5 1.5 0 0 1 0 3H4.5a4.5 4.5 0 0 1-4.5-4.5v-9.2a1.5 1.5 0 0 1 3 0v9.2zM59.498 3a1.5 1.5 0 0 1 1.5 1.5v9.2a1.5 1.5 0 0 0 3 0V4.5a4.5 4.5 0 0 0-4.5-4.5h-9.2a1.5 1.5 0 0 0 0 3h9.2zm1.5 56.498a1.5 1.5 0 0 1-1.5 1.5h-9.2a1.5 1.5 0 0 0 0 3h9.2a4.5 4.5 0 0 0 4.5-4.5v-9.2a1.5 1.5 0 0 0-3 0v9.2z" clip-rule="evenodd"/><path d="M21.267 46.54c-1.68 0-3.18-.378-4.5-1.134a8.608 8.608 0 0 1-3.114-3.114c-.755-1.32-1.133-2.82-1.133-4.5v-9.504c0-1.68.378-3.18 1.133-4.5a8.427 8.427 0 0 1 3.114-3.114c1.32-.756 2.82-1.134 4.5-1.134 1.68 0 3.18.378 4.5 1.134a8.255 8.255 0 0 1 3.114 3.114c.756 1.32 1.134 2.82 1.134 4.5v9.504c0 1.68-.378 3.18-1.134 4.5a8.427 8.427 0 0 1-3.114 3.114c-1.32.756-2.82 1.134-4.5 1.134zm0-3.078c1.02 0 1.945-.246 2.773-.738a5.59 5.59 0 0 0 1.98-1.98c.492-.84.738-1.764.738-2.772V28.09c0-1.02-.246-1.944-.738-2.772a5.59 5.59 0 0 0-1.98-1.98c-.828-.492-1.752-.738-2.773-.738a5.385 5.385 0 0 0-2.771.738 5.59 5.59 0 0 0-1.98 1.98c-.492.828-.738 1.752-.738 2.772v9.882c0 1.008.245 1.932.737 2.772a5.59 5.59 0 0 0 1.98 1.98c.84.492 1.764.738 2.772.738zm13.068 2.52.018-2.88 11.502-10.35c.96-.864 1.602-1.68 1.926-2.448.336-.78.504-1.578.504-2.394 0-.996-.228-1.896-.684-2.7a5.101 5.101 0 0 0-1.872-1.908c-.78-.468-1.668-.702-2.664-.702-1.032 0-1.95.246-2.754.738a5.337 5.337 0 0 0-1.908 1.926 5.101 5.101 0 0 0-.666 2.628H34.46c0-1.632.378-3.072 1.134-4.32a7.996 7.996 0 0 1 3.078-2.952c1.308-.72 2.79-1.08 4.446-1.08 1.608 0 3.048.372 4.32 1.116a8.031 8.031 0 0 1 3.006 3.006c.744 1.26 1.116 2.688 1.116 4.284 0 1.128-.144 2.106-.432 2.934a7.103 7.103 0 0 1-1.296 2.304c-.588.696-1.326 1.44-2.214 2.232l-9.558 8.586-.414-1.08H51.56v3.06H34.335z"/></g><defs><clipPath id="a"><path fill="#fff" d="M0 0h64v64H0z"/></clipPath></defs></svg>