<svg xmlns="http://www.w3.org/2000/svg" width="64" height="64" fill="none"><g fill="#20B26C" clip-path="url(#a)"><path fill-rule="evenodd" d="M3 4.5A1.5 1.5 0 0 1 4.5 3h9.2a1.5 1.5 0 0 0 0-3H4.5A4.5 4.5 0 0 0 0 4.5v9.2a1.5 1.5 0 0 0 3 0V4.5zm0 54.998a1.5 1.5 0 0 0 1.5 1.5h9.2a1.5 1.5 0 0 1 0 3H4.5a4.5 4.5 0 0 1-4.5-4.5v-9.2a1.5 1.5 0 0 1 3 0v9.2zM59.498 3a1.5 1.5 0 0 1 1.5 1.5v9.2a1.5 1.5 0 0 0 3 0V4.5a4.5 4.5 0 0 0-4.5-4.5h-9.2a1.5 1.5 0 0 0 0 3h9.2zm1.5 56.498a1.5 1.5 0 0 1-1.5 1.5h-9.2a1.5 1.5 0 0 0 0 3h9.2a4.5 4.5 0 0 0 4.5-4.5v-9.2a1.5 1.5 0 0 0-3 0v9.2z" clip-rule="evenodd"/><path d="M22.267 46.54c-1.68 0-3.18-.378-4.5-1.134a8.608 8.608 0 0 1-3.114-3.114c-.755-1.32-1.133-2.82-1.133-4.5v-9.504c0-1.68.378-3.18 1.133-4.5a8.427 8.427 0 0 1 3.114-3.114c1.32-.756 2.82-1.134 4.5-1.134 1.68 0 3.18.378 4.5 1.134a8.255 8.255 0 0 1 3.114 3.114c.756 1.32 1.134 2.82 1.134 4.5v9.504c0 1.68-.378 3.18-1.134 4.5a8.427 8.427 0 0 1-3.114 3.114c-1.32.756-2.82 1.134-4.5 1.134zm0-3.078c1.02 0 1.945-.246 2.773-.738a5.59 5.59 0 0 0 1.98-1.98c.492-.84.738-1.764.738-2.772V28.09c0-1.02-.246-1.944-.738-2.772a5.59 5.59 0 0 0-1.98-1.98c-.828-.492-1.752-.738-2.773-.738a5.385 5.385 0 0 0-2.771.738 5.59 5.59 0 0 0-1.98 1.98c-.492.828-.738 1.752-.738 2.772v9.882c0 1.008.245 1.932.738 2.772a5.59 5.59 0 0 0 1.98 1.98c.84.492 1.764.738 2.771.738zm20.898 3.042c-1.284 0-2.478-.234-3.582-.702a8.485 8.485 0 0 1-2.862-2.016c-.792-.876-1.374-1.914-1.746-3.114l3.078-.882c.396 1.2 1.056 2.112 1.98 2.736.924.624 1.962.93 3.114.918 1.056-.024 1.968-.264 2.736-.72a4.75 4.75 0 0 0 1.8-1.908c.432-.804.648-1.734.648-2.79 0-1.608-.48-2.91-1.44-3.906-.96-1.008-2.22-1.512-3.78-1.512a5.961 5.961 0 0 0-2.682.684l-1.548-2.538 9.612-8.694.414 1.08H36v-3.06h15.282v3.078l-8.19 7.848-.036-1.134c1.716-.12 3.216.162 4.5.846a7.256 7.256 0 0 1 2.988 2.934c.72 1.272 1.08 2.73 1.08 4.374 0 1.656-.372 3.12-1.116 4.392a8.166 8.166 0 0 1-3.024 3.006c-1.272.72-2.712 1.08-4.32 1.08z"/></g><defs><clipPath id="a"><path fill="#fff" d="M0 0h64v64H0z"/></clipPath></defs></svg>